<?xml version="1.0" encoding="UTF-8" ?>
<!DOCTYPE svg PUBLIC "-//W3C//DTD SVG 1.1//EN" "http://www.w3.org/Graphics/SVG/1.1/DTD/svg11.dtd">
<svg width="256pt" height="256pt" viewBox="0 0 256 256" version="1.1"
  xmlns="http://www.w3.org/2000/svg">
  <defs>
    <linearGradient id="color" x1="0%" y1="0%" x2="100%" y2="100%">
      <stop offset="0%" style="stop-color:#56bdfc" />
      <stop offset="100%" style="stop-color:#2c8af8" />
    </linearGradient>
  </defs>
  <path fill="url(#color)" d=" M 84.18 13.08 C 87.05 12.57 89.46 14.93 91.83 16.17 C 102.36 26.85 108.98 40.54 117.09 52.97 C 139.38 48.22 162.60 48.15 184.89 53.03 C 192.19 39.84 197.17 24.93 208.16 14.17 C 209.51 13.01 211.05 12.66 212.79 13.11 C 217.36 25.05 219.25 37.82 221.51 50.34 C 231.83 109.61 240.89 169.13 246.94 228.99 C 246.97 233.60 247.24 238.24 246.89 242.85 C 229.45 246.15 211.63 245.69 194.01 247.01 C 149.55 246.17 104.93 249.11 60.65 244.47 C 47.55 241.04 32.71 242.90 20.99 235.02 C 2.66 224.35 -1.84 195.67 13.69 180.69 C 19.43 174.43 28.01 169.45 36.74 171.29 C 38.72 171.80 40.04 173.81 39.89 175.81 C 35.69 180.06 30.48 183.10 25.87 186.87 C 21.05 192.26 17.02 199.60 19.96 207.03 C 22.75 221.20 39.24 226.03 51.82 224.98 C 58.93 161.93 65.26 98.65 77.40 36.33 C 79.53 28.65 79.61 19.87 84.18 13.08 M 102.32 98.33 C 95.51 100.05 91.52 108.13 95.57 114.35 C 99.24 121.12 111.46 120.51 114.03 113.03 C 117.91 105.62 110.37 96.38 102.32 98.33 M 187.32 98.34 C 180.23 99.96 176.25 109.98 181.74 115.27 C 186.49 122.20 199.14 119.47 200.03 111.01 C 201.86 103.65 194.43 96.78 187.32 98.34 M 146.29 139.25 C 143.31 143.90 137.98 143.13 133.02 143.08 C 133.01 143.56 133.01 144.53 133.01 145.01 C 137.96 145.33 143.00 145.20 147.23 142.42 C 151.40 144.06 158.76 147.82 162.17 143.13 C 159.70 143.03 154.76 142.81 152.29 142.71 C 149.90 142.29 148.61 138.70 146.29 139.25 Z" />
</svg>
